<svg xmlns="http://www.w3.org/2000/svg" width="1024" height="1024" viewBox="0 0 1024 1024">
<path d="M 497 910 L 497 949" fill="none" stroke="black" stroke-width="1"/>
<path d="M 572 909 L 572 949" fill="none" stroke="black" stroke-width="1"/>
<path d="M 546 907 L 539 915 L 539 916 L 534 921 L 534 922 L 533 923 L 533 926 L 530 929 L 524 929 L 523 930 L 521 930 L 520 929 L 520 909 L 520 929 L 521 930 L 520 931 L 520 949 L 520 931 L 521 930 L 523 930 L 524 929 L 530 929 L 531 928 L 532 928 L 537 934 L 537 935 L 539 937 L 539 938 L 541 940 L 541 941 L 544 944 L 544 945 L 546 947 L 546 948 L 549 951 L 546 948 L 546 947 L 544 945 L 544 944 L 541 941 L 541 940 L 539 938 L 539 937 L 537 935 L 537 934 L 532 928 L 534 921 L 539 916 L 539 915 L 543 911 L 543 910" fill="none" stroke="black" stroke-width="1"/>
<path d="M 470 907 L 458 921 L 458 922 L 457 923 L 457 925 L 454 929 L 447 929 L 446 930 L 445 930 L 444 929 L 444 909 L 444 929 L 445 930 L 444 931 L 444 949 L 444 931 L 447 929 L 454 929 L 455 928 L 456 928 L 458 930 L 458 931 L 460 933 L 460 934 L 462 936 L 462 937 L 465 940 L 465 941 L 467 943 L 467 944 L 469 946 L 469 947 L 472 951 L 469 947 L 469 946 L 467 944 L 467 943 L 465 941 L 465 940 L 462 937 L 462 936 L 456 928 L 456 926 L 457 925 L 457 923 L 458 922 L 458 921 L 466 912 L 466 911" fill="none" stroke="black" stroke-width="1"/>
<path d="M 434 535 L 438 539 L 439 539 L 444 543 L 445 543 L 450 546 L 452 546 L 453 547 L 455 547 L 456 548 L 459 548 L 460 549 L 464 549 L 465 550 L 480 550 L 481 549 L 485 549 L 486 548 L 488 548 L 489 547 L 491 547 L 492 546 L 494 546 L 495 545 L 497 545 L 498 544 L 499 544 L 500 543 L 501 543 L 502 542 L 505 541 L 507 539 L 508 539 L 511 536 L 508 539 L 507 539 L 505 541 L 504 541 L 503 542 L 502 542 L 497 545 L 495 545 L 494 546 L 492 546 L 491 547 L 489 547 L 488 548 L 486 548 L 485 549 L 481 549 L 480 550 L 465 550 L 464 549 L 460 549 L 459 548 L 456 548 L 455 547 L 453 547 L 452 546 L 450 546 L 449 545 L 448 545 L 447 544 L 444 543 L 439 539 L 438 539" fill="none" stroke="black" stroke-width="1"/>
<path d="M 444 430 L 445 429 L 455 429 L 456 430 L 461 430 L 462 431 L 468 431 L 469 430 L 473 430 L 474 429 L 488 429 L 489 430 L 491 430 L 492 431 L 495 432 L 497 434 L 497 435 L 498 436 L 498 439 L 497 440 L 497 441 L 494 444 L 492 444 L 489 446 L 487 446 L 486 447 L 484 447 L 482 449 L 481 449 L 478 452 L 478 453 L 477 454 L 477 456 L 476 457 L 476 459 L 475 460 L 475 461 L 474 462 L 473 465 L 466 472 L 464 470 L 463 470 L 456 463 L 456 462 L 455 461 L 455 459 L 454 458 L 454 456 L 453 455 L 452 452 L 449 449 L 448 449 L 445 447 L 442 447 L 441 446 L 440 446 L 436 442 L 436 435 L 440 431 L 441 431 L 442 430" fill="none" stroke="black" stroke-width="1"/>
<path d="M 445 429 L 440 431 L 436 435 L 436 442 L 440 446 L 449 449 L 452 452 L 456 463 L 466 472 L 466 489 L 458 497 L 449 503 L 438 508 L 427 511 L 438 508 L 449 503 L 458 497 L 466 489 L 475 497 L 493 507 L 507 511 L 514 511 L 507 511 L 493 507 L 478 499 L 466 489 L 466 472 L 473 465 L 478 452 L 484 447 L 494 444 L 498 439 L 497 434 L 488 429 L 474 429 L 468 431 L 462 431 L 455 429" fill="none" stroke="black" stroke-width="1"/>
<path d="M 346 332 L 347 331 L 348 331 L 349 332 L 349 339 L 348 340 L 343 335 L 343 334 L 345 332" fill="none" stroke="black" stroke-width="1"/>
<path d="M 567 319 L 568 318 L 570 318 L 571 319 L 571 334 L 570 335 L 571 336 L 570 338 L 570 342 L 571 344 L 570 345 L 570 350 L 570 345 L 571 344 L 570 342 L 570 338 L 571 336 L 570 335 L 571 334 L 571 319 L 572 318 L 584 318 L 585 319 L 592 320 L 602 325 L 608 331 L 608 350 L 607 351 L 606 357 L 600 369 L 596 373 L 596 374 L 590 379 L 582 383 L 572 385 L 571 386 L 561 385 L 550 381 L 544 377 L 536 369 L 534 364 L 530 360 L 530 354 L 531 353 L 532 343 L 536 336 L 549 324 L 561 319" fill="none" stroke="black" stroke-width="1"/>
<path d="M 377 319 L 378 318 L 379 319 L 384 319 L 386 321 L 386 329 L 384 333 L 385 334 L 384 336 L 385 338 L 384 339 L 384 347 L 383 348 L 384 351 L 383 352 L 383 356 L 383 352 L 384 351 L 383 348 L 384 347 L 384 339 L 385 338 L 384 336 L 385 334 L 384 333 L 386 329 L 386 322 L 388 320 L 390 321 L 394 321 L 406 328 L 416 339 L 420 347 L 421 362 L 422 363 L 415 369 L 414 372 L 408 378 L 398 383 L 394 383 L 389 385 L 383 385 L 382 384 L 375 383 L 365 378 L 361 374 L 360 374 L 354 367 L 349 355 L 349 352 L 348 351 L 348 340 L 349 339 L 349 331 L 350 329 L 352 328 L 355 324 L 364 320 L 368 320 L 369 319" fill="none" stroke="black" stroke-width="1"/>
<path d="M 568 318 L 567 319 L 561 319 L 549 324 L 536 336 L 532 343 L 531 353 L 530 354 L 530 360 L 526 364 L 525 372 L 524 373 L 524 377 L 523 378 L 524 377 L 524 373 L 525 372 L 526 364 L 530 360 L 534 364 L 536 369 L 544 377 L 552 382 L 554 382 L 561 385 L 565 385 L 566 386 L 571 386 L 572 385 L 575 385 L 576 384 L 582 383 L 590 379 L 593 376 L 594 376 L 600 369 L 606 357 L 607 351 L 608 350 L 608 331 L 602 325 L 589 319 L 585 319 L 584 318 L 572 318 L 571 319 L 570 318" fill="none" stroke="black" stroke-width="1"/>
<path d="M 378 318 L 377 319 L 369 319 L 368 320 L 364 320 L 361 322 L 359 322 L 355 324 L 349 331 L 347 331 L 343 334 L 343 335 L 348 340 L 348 351 L 349 352 L 349 355 L 350 356 L 351 361 L 357 371 L 365 378 L 372 382 L 378 383 L 379 384 L 382 384 L 383 385 L 389 385 L 390 384 L 393 384 L 394 383 L 398 383 L 408 378 L 414 372 L 415 369 L 420 364 L 422 364 L 424 366 L 424 375 L 425 376 L 425 380 L 425 376 L 424 375 L 424 366 L 421 362 L 421 353 L 420 352 L 420 347 L 419 346 L 419 344 L 417 342 L 416 339 L 413 336 L 413 335 L 402 325 L 394 321 L 390 321 L 389 320 L 386 321 L 384 319 L 379 319" fill="none" stroke="black" stroke-width="1"/>
<path d="M 599 205 L 592 212 L 592 213 L 589 216 L 589 217 L 586 220 L 586 221 L 585 222 L 585 223 L 583 225 L 583 226 L 582 227 L 582 228 L 581 229 L 581 230 L 580 231 L 580 233 L 579 234 L 579 235 L 579 234 L 580 233 L 580 231 L 581 230 L 581 229 L 582 228 L 582 227 L 583 226 L 583 225 L 585 223 L 585 222 L 586 221 L 586 220 L 589 217 L 589 216 L 592 213 L 592 212" fill="none" stroke="black" stroke-width="1"/>
<path d="M 384 199 L 385 200 L 385 201 L 387 203 L 387 204 L 388 205 L 388 206 L 390 208 L 390 209 L 391 210 L 391 211 L 392 212 L 392 213 L 393 214 L 393 215 L 394 216 L 394 217 L 395 218 L 395 219 L 396 220 L 396 221 L 397 222 L 397 223 L 398 224 L 398 225 L 399 226 L 399 228 L 400 229 L 400 230 L 401 231 L 401 233 L 402 234 L 402 236 L 403 237 L 403 239 L 403 237 L 402 236 L 402 234 L 401 233 L 401 231 L 400 230 L 400 229 L 399 228 L 399 226 L 398 225 L 398 224 L 397 223 L 397 222 L 396 221 L 396 220 L 395 219 L 395 218 L 394 217 L 394 216 L 393 215 L 393 214 L 392 213 L 392 212 L 391 211 L 391 210 L 390 209 L 390 208 L 388 206 L 388 205 L 387 204 L 387 203 L 385 201 L 385 200" fill="none" stroke="black" stroke-width="1"/>
<path d="M 686 68 L 554 192 L 416 189 L 311 81 L 272 83 L 297 290 L 283 355 L 315 455 L 230 475 L 315 455 L 334 486 L 239 536 L 334 486 L 353 513 L 286 587 L 359 525 L 344 699 L 373 825 L 344 699 L 366 566 L 354 514 L 397 490 L 354 514 L 339 487 L 386 475 L 335 487 L 320 458 L 377 456 L 316 456 L 289 390 L 297 290 L 266 134 L 281 73 L 320 88 L 416 189 L 568 189 L 559 210 L 660 83 L 707 74 L 719 136 L 695 429 L 666 464 L 555 456 L 666 464 L 638 497 L 554 475 L 632 497 L 599 524 L 542 493 L 647 575 L 599 524 L 638 497 L 706 539 L 638 497 L 667 463 L 689 469 L 672 462 L 694 430 L 743 530 L 867 629 L 923 728 L 873 636 L 748 536 L 703 459 L 719 132 L 700 68" fill="none" stroke="black" stroke-width="1"/>
</svg>