<svg xmlns="http://www.w3.org/2000/svg" width="1024" height="1024" viewBox="0 0 1024 1024">
<path d="M 332 795 L 334 795" fill="none" stroke="black" stroke-width="1"/>
<path d="M 850 780 L 743 796 L 574 808 L 429 807 L 336 796 L 429 807 L 574 808 L 723 798 L 851 781" fill="none" stroke="black" stroke-width="1"/>
<path d="M 857 779 L 860 779" fill="none" stroke="black" stroke-width="1"/>
<path d="M 862 778 L 865 778" fill="none" stroke="black" stroke-width="1"/>
<path d="M 867 777 L 870 777" fill="none" stroke="black" stroke-width="1"/>
<path d="M 277 777 L 279 779 L 280 779 L 281 780 L 283 780 L 284 781 L 285 781 L 286 782 L 288 782 L 289 783 L 291 783 L 292 784 L 293 784 L 294 785 L 297 785 L 298 786 L 300 786 L 301 787 L 303 787 L 304 788 L 306 788 L 307 789 L 310 789 L 311 790 L 314 790 L 315 791 L 318 791 L 319 792 L 322 792 L 323 793 L 326 793 L 327 794 L 330 794 L 327 794 L 326 793 L 323 793 L 322 792 L 319 792 L 318 791 L 316 791 L 315 790 L 312 790 L 311 789 L 309 789 L 308 788 L 306 788 L 305 787 L 302 787 L 301 786 L 299 786 L 298 785 L 296 785 L 295 784 L 294 784 L 293 783 L 291 783 L 290 782 L 288 782 L 287 781 L 286 781 L 285 780 L 284 780 L 283 779 L 281 779 L 280 778 L 278 778" fill="none" stroke="black" stroke-width="1"/>
<path d="M 872 776 L 874 776" fill="none" stroke="black" stroke-width="1"/>
<path d="M 876 775 L 878 775" fill="none" stroke="black" stroke-width="1"/>
<path d="M 273 775 L 274 776 L 275 776 L 274 776" fill="none" stroke="black" stroke-width="1"/>
<path d="M 234 749 L 238 753 L 239 753 L 243 757 L 244 757 L 247 760 L 248 760 L 250 762 L 251 762 L 254 765 L 255 765 L 257 767 L 258 767 L 259 768 L 260 768 L 261 769 L 262 769 L 263 770 L 264 770 L 265 771 L 266 771 L 267 772 L 268 772 L 269 773 L 268 772 L 267 772 L 266 771 L 265 771 L 263 769 L 262 769 L 260 767 L 259 767 L 258 766 L 257 766 L 255 764 L 253 764 L 251 762 L 250 762 L 247 759 L 246 759 L 244 757 L 243 757 L 239 753 L 238 753" fill="none" stroke="black" stroke-width="1"/>
<path d="M 522 710 L 523 711 L 525 711 L 528 713 L 531 713 L 533 715 L 537 715 L 540 717 L 543 717 L 544 718 L 548 718 L 549 719 L 551 719 L 552 720 L 557 720 L 558 721 L 561 721 L 562 722 L 566 722 L 567 723 L 573 723 L 574 724 L 580 724 L 581 725 L 582 724 L 583 725 L 587 725 L 588 726 L 592 726 L 595 724 L 592 726 L 591 725 L 589 725 L 588 726 L 587 725 L 583 725 L 582 724 L 581 725 L 580 724 L 575 724 L 574 723 L 570 723 L 569 722 L 566 722 L 565 721 L 562 721 L 561 720 L 559 720 L 558 721 L 557 720 L 555 720 L 554 719 L 553 719 L 552 720 L 551 719 L 549 719 L 546 717 L 545 717 L 544 718 L 541 716 L 540 717 L 539 716 L 538 716 L 535 714 L 534 714 L 533 715 L 531 713 L 530 713 L 529 712 L 528 713 L 525 711 L 523 711" fill="none" stroke="black" stroke-width="1"/>
<path d="M 506 710 L 505 711" fill="none" stroke="black" stroke-width="1"/>
<path d="M 509 709 L 508 710" fill="none" stroke="black" stroke-width="1"/>
<path d="M 589 708 L 591 710 L 593 710 L 595 712 L 596 712 L 599 715 L 600 715 L 603 718 L 599 714 L 598 714 L 595 711 L 594 711 L 592 709 L 590 709" fill="none" stroke="black" stroke-width="1"/>
<path d="M 512 708 L 511 709" fill="none" stroke="black" stroke-width="1"/>
<path d="M 515 707 L 514 708 L 515 707 L 516 708 L 517 708 L 518 709 L 520 709 L 519 709 L 517 707 L 516 708" fill="none" stroke="black" stroke-width="1"/>
<path d="M 492 706 L 493 707 L 494 707 L 495 708 L 496 708 L 497 709 L 498 708 L 500 710 L 501 710 L 502 711 L 503 711 L 503 710 L 502 710 L 501 709 L 500 710 L 498 708 L 497 708 L 496 707 L 495 707 L 494 706 L 493 707" fill="none" stroke="black" stroke-width="1"/>
<path d="M 760 705 L 748 711 L 730 718 L 727 718 L 712 723 L 711 722 L 707 724 L 706 723 L 701 725 L 699 724 L 694 726 L 693 725 L 689 725 L 684 727 L 683 726 L 658 726 L 657 727 L 656 726 L 647 726 L 646 725 L 641 725 L 640 726 L 634 724 L 630 725 L 625 723 L 623 724 L 618 722 L 616 723 L 612 721 L 610 722 L 607 720 L 605 721 L 604 720 L 598 723 L 604 720 L 610 722 L 629 724 L 630 725 L 639 725 L 640 726 L 684 727 L 689 725 L 690 726 L 694 726 L 699 724 L 701 725 L 706 723 L 707 724 L 711 722 L 712 723 L 740 715 L 758 707" fill="none" stroke="black" stroke-width="1"/>
<path d="M 773 697 L 771 699 L 770 699 L 768 701 L 767 701 L 766 702 L 767 701 L 768 701 L 770 699 L 771 699 L 772 698 L 773 698" fill="none" stroke="black" stroke-width="1"/>
<path d="M 561 690 L 566 695 L 567 695 L 569 697 L 570 697 L 572 699 L 573 699 L 574 700 L 575 700 L 577 702 L 578 702 L 579 703 L 580 703 L 581 704 L 580 703 L 579 703 L 577 701 L 576 701 L 574 699 L 573 699 L 571 697 L 570 697 L 567 694 L 566 694 L 565 693 L 564 693" fill="none" stroke="black" stroke-width="1"/>
<path d="M 497 687 L 501 691 L 502 691 L 506 695 L 507 695 L 512 700 L 513 700 L 514 701 L 514 702 L 514 701 L 511 698 L 510 698 L 505 693 L 504 693 L 502 691 L 501 691" fill="none" stroke="black" stroke-width="1"/>
<path d="M 789 685 L 777 697 L 789 706 L 868 735 L 895 749 L 902 756 L 903 758 L 902 763 L 894 770 L 893 769 L 888 772 L 880 774 L 892 771 L 901 765 L 903 761 L 902 756 L 899 752 L 888 744 L 859 731 L 814 715 L 791 705 L 788 705 L 777 697" fill="none" stroke="black" stroke-width="1"/>
<path d="M 455 681 L 459 685 L 460 685 L 464 689 L 465 689 L 469 693 L 470 693 L 472 695 L 473 695 L 474 696 L 475 696 L 477 698 L 478 698 L 479 699 L 480 699 L 482 701 L 483 701 L 484 702 L 485 702 L 486 703 L 487 703 L 488 704 L 489 704 L 490 705 L 489 704 L 488 704 L 487 703 L 486 703 L 485 702 L 484 702 L 482 700 L 481 700 L 480 699 L 479 699 L 477 697 L 476 697 L 473 694 L 472 694 L 470 692 L 469 692 L 468 691 L 467 691 L 464 688 L 463 688 L 460 685 L 459 685" fill="none" stroke="black" stroke-width="1"/>
<path d="M 176 677 L 177 678 L 178 681 L 180 683 L 182 688 L 184 690 L 185 693 L 187 695 L 187 696 L 189 698 L 189 699 L 191 701 L 191 702 L 193 704 L 193 705 L 195 707 L 195 708 L 200 713 L 200 714 L 203 717 L 203 718 L 208 723 L 208 724 L 213 729 L 213 730 L 226 743 L 227 743 L 232 748 L 209 725 L 209 724 L 203 718 L 203 717 L 197 710 L 196 707 L 193 704 L 193 703 L 191 701 L 191 700 L 189 698 L 189 697 L 187 695 L 187 694 L 185 692 L 185 691 L 181 686 L 181 685 L 180 684 L 180 683 L 178 681 L 177 678" fill="none" stroke="black" stroke-width="1"/>
<path d="M 520 643 L 521 644 L 521 645 L 522 646 L 522 647 L 523 648 L 523 649 L 525 651 L 525 652 L 527 654 L 527 655 L 530 658 L 530 659 L 534 663 L 534 664 L 537 667 L 537 668 L 555 686 L 556 686 L 559 689 L 551 681 L 550 681 L 542 673 L 542 672 L 534 664 L 534 663 L 530 659 L 530 658 L 528 656 L 528 655 L 527 654 L 527 653 L 525 651 L 525 650 L 523 648 L 523 647 L 521 645 L 521 644" fill="none" stroke="black" stroke-width="1"/>
<path d="M 831 636 L 830 637 L 830 638 L 828 640 L 828 641 L 826 643 L 826 644 L 824 646 L 824 647 L 821 650 L 821 651 L 819 653 L 819 654 L 816 657 L 816 658 L 812 662 L 812 663 L 791 684 L 796 679 L 797 679 L 806 670 L 806 669 L 812 663 L 812 662 L 817 657 L 817 656 L 821 652 L 821 651 L 823 649 L 823 648 L 825 646 L 825 645 L 827 643 L 827 642 L 828 641 L 828 640 L 830 638 L 830 637" fill="none" stroke="black" stroke-width="1"/>
<path d="M 835 629 L 834 630" fill="none" stroke="black" stroke-width="1"/>
<path d="M 702 619 L 701 620 L 700 620 L 697 622 L 695 622 L 692 624 L 690 624 L 689 625 L 686 625 L 685 626 L 682 626 L 681 627 L 680 626 L 679 626 L 676 628 L 675 627 L 657 627 L 656 628 L 655 627 L 652 627 L 651 626 L 650 627 L 649 626 L 646 626 L 645 625 L 642 625 L 641 624 L 639 624 L 636 622 L 634 622 L 631 620 L 630 621 L 629 620 L 630 621 L 631 621 L 634 623 L 637 623 L 638 624 L 641 624 L 642 625 L 645 625 L 646 626 L 649 626 L 650 627 L 651 626 L 652 627 L 655 627 L 656 628 L 676 628 L 679 626 L 680 627 L 681 627 L 682 626 L 685 626 L 686 625 L 689 625 L 690 624 L 693 624 L 694 623 L 696 623 L 697 622 L 699 622 L 700 621 L 701 621 L 704 619 L 703 620" fill="none" stroke="black" stroke-width="1"/>
<path d="M 149 611 L 149 613 L 150 614 L 150 616 L 151 617 L 151 619 L 152 620 L 152 623 L 153 624 L 153 626 L 154 627 L 154 629 L 155 630 L 155 632 L 156 633 L 156 635 L 157 636 L 157 638 L 158 639 L 158 640 L 159 641 L 159 643 L 160 644 L 160 645 L 161 646 L 161 648 L 162 649 L 162 650 L 163 651 L 163 652 L 164 653 L 163 652 L 164 651 L 163 650 L 163 649 L 162 648 L 162 646 L 161 645 L 161 644 L 160 643 L 160 642 L 159 641 L 159 639 L 158 638 L 158 637 L 157 636 L 157 634 L 156 633 L 156 632 L 155 631 L 155 629 L 154 628 L 154 626 L 153 625 L 153 623 L 152 622 L 152 620 L 151 619 L 151 617 L 150 616 L 150 614 L 149 613" fill="none" stroke="black" stroke-width="1"/>
<path d="M 147 604 L 147 606 L 148 607 L 148 609 L 148 607 L 147 606" fill="none" stroke="black" stroke-width="1"/>
<path d="M 146 600 L 146 602" fill="none" stroke="black" stroke-width="1"/>
<path d="M 413 597 L 435 618 L 435 619 L 442 626 L 442 627 L 446 631 L 446 632 L 450 636 L 450 637 L 455 642 L 455 643 L 469 659 L 469 660 L 475 666 L 475 667 L 489 681 L 490 681 L 495 686 L 470 661 L 470 660 L 464 654 L 464 653 L 460 649 L 460 648 L 456 644 L 456 643 L 452 639 L 452 638 L 448 634 L 448 633 L 443 628 L 443 627 L 432 615 L 432 614 L 421 603 L 420 603 L 416 599 L 415 599" fill="none" stroke="black" stroke-width="1"/>
<path d="M 734 596 L 722 608 L 721 608 L 719 610 L 718 610 L 716 612 L 715 612 L 712 615 L 711 615 L 710 616 L 709 616 L 708 617 L 709 616 L 710 616 L 711 615 L 712 615 L 713 614 L 714 614 L 716 612 L 717 612 L 721 608 L 722 608 L 728 602 L 729 602 L 730 601 L 730 600" fill="none" stroke="black" stroke-width="1"/>
<path d="M 145 596 L 145 598" fill="none" stroke="black" stroke-width="1"/>
<path d="M 348 592 L 349 593 L 348 594 L 350 597 L 356 603 L 356 604 L 358 605 L 365 612 L 389 628 L 392 629 L 396 633 L 402 636 L 405 639 L 410 642 L 420 651 L 421 651 L 429 659 L 430 659 L 447 675 L 448 675 L 420 650 L 419 650 L 410 642 L 405 639 L 400 634 L 394 631 L 390 627 L 387 626 L 377 619 L 374 618 L 367 612 L 363 610 L 352 599 L 352 598 L 349 595 L 349 593" fill="none" stroke="black" stroke-width="1"/>
<path d="M 597 590 L 598 591 L 598 592 L 599 593 L 599 594 L 601 596 L 601 597 L 606 602 L 606 603 L 612 609 L 613 609 L 618 614 L 619 614 L 621 616 L 622 616 L 623 617 L 624 617 L 625 618 L 626 618 L 627 619 L 626 618 L 625 618 L 624 617 L 623 617 L 620 614 L 619 614 L 617 612 L 616 612 L 603 599 L 603 598 L 601 596 L 601 595 L 598 592 L 598 591" fill="none" stroke="black" stroke-width="1"/>
<path d="M 403 590 L 405 592 L 406 592 L 408 594 L 409 594 L 411 596 L 408 593 L 407 593 L 405 591 L 404 591" fill="none" stroke="black" stroke-width="1"/>
<path d="M 400 588 L 401 589" fill="none" stroke="black" stroke-width="1"/>
<path d="M 743 583 L 742 584 L 742 585 L 739 588 L 739 589 L 737 591 L 737 592 L 735 594 L 739 590 L 739 589 L 741 587 L 741 586 L 742 585 L 742 584" fill="none" stroke="black" stroke-width="1"/>
<path d="M 745 579 L 745 580 L 744 581 L 745 580" fill="none" stroke="black" stroke-width="1"/>
<path d="M 854 575 L 854 578 L 853 579 L 853 582 L 852 583 L 852 586 L 851 587 L 851 590 L 850 591 L 850 593 L 849 594 L 849 596 L 848 597 L 848 599 L 847 600 L 847 601 L 846 602 L 846 604 L 845 605 L 845 607 L 844 608 L 844 609 L 843 610 L 843 611 L 842 612 L 842 614 L 841 615 L 841 616 L 840 617 L 840 618 L 839 619 L 839 620 L 838 621 L 838 622 L 837 623 L 838 624 L 837 625 L 838 624 L 838 623 L 839 622 L 839 621 L 840 620 L 840 619 L 841 618 L 841 617 L 842 616 L 842 614 L 843 613 L 843 612 L 844 611 L 844 609 L 845 608 L 845 607 L 846 606 L 846 604 L 847 603 L 847 601 L 848 600 L 848 598 L 849 597 L 849 594 L 850 593 L 850 591 L 851 590 L 851 587 L 852 586 L 852 583 L 853 582 L 853 579 L 854 578" fill="none" stroke="black" stroke-width="1"/>
<path d="M 373 575 L 372 576 L 371 576 L 370 577 L 369 577 L 367 579 L 366 579 L 365 580 L 363 580 L 362 581 L 361 581 L 359 583 L 360 582 L 362 582 L 363 581 L 364 581 L 365 580 L 366 580 L 369 577 L 370 577 L 371 576 L 372 576 L 373 575 L 374 576 L 375 576 L 376 577 L 377 577 L 378 578 L 379 578 L 380 579 L 382 579 L 383 580 L 385 580 L 386 581 L 387 581 L 388 582 L 389 582 L 390 583 L 391 583 L 393 585 L 394 585 L 395 586 L 397 586 L 398 587 L 396 585 L 395 585 L 394 584 L 393 584 L 392 583 L 391 583 L 390 582 L 388 582 L 387 581 L 386 581 L 385 580 L 383 580 L 382 579 L 380 579 L 379 578 L 378 578 L 377 577 L 376 577 L 375 576 L 374 576" fill="none" stroke="black" stroke-width="1"/>
<path d="M 855 570 L 855 573" fill="none" stroke="black" stroke-width="1"/>
<path d="M 338 569 L 338 571 L 339 572 L 339 575 L 340 576 L 340 578 L 341 579 L 341 581 L 344 584 L 344 585 L 346 587 L 346 588 L 348 590 L 349 590 L 350 589 L 351 589 L 354 586 L 355 586 L 357 584 L 356 585 L 355 585 L 351 589 L 350 589 L 349 590 L 348 590 L 347 589 L 347 588 L 344 585 L 344 584 L 342 582 L 342 581 L 341 580 L 341 578 L 340 577 L 340 575 L 339 574 L 339 572 L 338 571" fill="none" stroke="black" stroke-width="1"/>
<path d="M 690 556 L 689 557 L 689 558 L 687 560 L 687 561 L 681 567 L 680 567 L 677 570 L 676 570 L 675 571 L 673 571 L 672 572 L 671 572 L 670 573 L 668 573 L 667 574 L 666 573 L 665 574 L 659 574 L 658 573 L 657 574 L 656 573 L 655 573 L 654 572 L 651 572 L 650 571 L 649 571 L 647 569 L 646 569 L 644 567 L 643 567 L 639 563 L 643 567 L 644 567 L 647 570 L 648 570 L 649 571 L 650 571 L 652 573 L 656 573 L 657 574 L 658 573 L 659 574 L 665 574 L 666 573 L 667 574 L 668 573 L 671 573 L 672 572 L 674 572 L 676 570 L 677 570 L 678 569 L 679 569 L 688 560 L 688 559 L 689 558 L 689 557" fill="none" stroke="black" stroke-width="1"/>
<path d="M 754 554 L 754 556 L 753 557 L 753 560 L 752 561 L 752 563 L 751 564 L 751 566 L 750 567 L 750 568 L 749 569 L 749 570 L 748 571 L 748 573 L 747 574 L 747 576 L 746 577 L 748 575 L 748 574 L 749 573 L 749 571 L 750 570 L 750 568 L 751 567 L 751 565 L 752 564 L 752 562 L 753 561 L 753 557 L 754 556" fill="none" stroke="black" stroke-width="1"/>
<path d="M 693 548 L 693 549 L 692 550 L 692 553 L 691 554 L 692 553 L 692 552 L 693 551" fill="none" stroke="black" stroke-width="1"/>
<path d="M 595 528 L 593 530 L 593 532 L 592 533 L 592 536 L 591 537 L 591 539 L 590 540 L 590 543 L 589 544 L 590 545 L 589 546 L 589 549 L 588 550 L 588 563 L 589 564 L 589 567 L 590 568 L 589 569 L 590 570 L 590 573 L 591 574 L 591 577 L 592 578 L 592 580 L 593 581 L 593 583 L 594 584 L 594 585 L 595 586 L 595 587 L 596 588 L 595 587 L 596 586 L 595 585 L 595 584 L 594 583 L 594 582 L 593 581 L 593 579 L 592 578 L 592 577 L 591 576 L 591 574 L 590 573 L 590 570 L 589 569 L 590 568 L 589 567 L 589 564 L 588 563 L 589 562 L 589 551 L 588 550 L 589 549 L 589 546 L 590 545 L 589 544 L 590 543 L 590 540 L 591 539 L 591 537 L 592 536 L 592 535 L 593 534 L 593 532 L 594 531 L 594 529" fill="none" stroke="black" stroke-width="1"/>
<path d="M 690 520 L 691 521 L 691 524 L 692 525 L 692 526 L 693 527 L 693 529 L 694 530 L 694 533 L 695 534 L 694 535 L 694 541 L 695 542 L 694 543 L 694 546 L 694 543 L 695 542 L 695 534 L 694 533 L 694 530 L 693 529 L 693 526 L 692 525 L 692 522" fill="none" stroke="black" stroke-width="1"/>
<path d="M 376 513 L 376 516 L 375 517 L 375 518 L 376 519 L 375 520 L 375 523 L 374 524 L 374 526 L 375 527 L 374 528 L 374 530 L 373 531 L 373 539 L 374 540 L 372 542 L 372 571 L 373 570 L 373 543 L 372 542 L 374 540 L 374 532 L 373 531 L 374 530 L 374 528 L 375 527 L 375 525 L 374 524 L 375 523 L 375 520 L 376 519 L 376 518 L 375 517 L 376 516" fill="none" stroke="black" stroke-width="1"/>
<path d="M 377 507 L 377 511" fill="none" stroke="black" stroke-width="1"/>
<path d="M 512 497 L 509 502 L 509 504 L 506 511 L 506 514 L 504 518 L 504 522 L 503 523 L 503 526 L 501 531 L 502 532 L 500 537 L 501 539 L 499 543 L 499 548 L 500 549 L 498 553 L 498 571 L 500 575 L 499 576 L 499 581 L 501 586 L 500 588 L 502 592 L 501 593 L 502 594 L 506 613 L 510 622 L 510 624 L 513 628 L 512 629 L 516 635 L 513 628 L 511 626 L 512 625 L 510 622 L 510 620 L 508 617 L 508 615 L 504 605 L 504 602 L 503 601 L 503 598 L 501 593 L 502 592 L 500 588 L 501 586 L 499 581 L 500 580 L 500 575 L 498 571 L 499 570 L 499 554 L 498 553 L 500 549 L 500 544 L 499 543 L 501 539 L 500 537 L 502 532 L 501 531 L 502 530 L 504 519 L 505 518 L 508 507 L 512 499 L 511 498" fill="none" stroke="black" stroke-width="1"/>
<path d="M 660 496 L 661 496 L 662 497 L 664 497 L 665 498 L 666 498 L 667 499 L 668 498 L 670 500 L 671 500 L 673 502 L 674 502 L 675 503 L 676 503 L 686 513 L 686 514 L 688 516 L 688 517 L 689 518 L 688 517 L 688 516 L 687 515 L 687 514 L 683 510 L 683 509 L 681 507 L 680 507 L 675 502 L 674 502 L 673 501 L 672 501 L 671 500 L 670 500 L 668 498 L 667 498 L 666 497 L 664 497 L 663 496" fill="none" stroke="black" stroke-width="1"/>
<path d="M 631 496 L 630 497 L 628 497 L 627 498 L 625 498 L 624 499 L 623 499 L 621 501 L 620 501 L 619 502 L 618 502 L 617 503 L 616 503 L 612 507 L 611 507 L 607 511 L 606 511 L 606 512 L 603 515 L 603 516 L 599 520 L 599 521 L 598 522 L 598 523 L 597 524 L 598 523 L 598 522 L 600 520 L 600 519 L 614 505 L 615 505 L 617 503 L 618 503 L 620 501 L 621 501 L 623 499 L 624 500 L 625 499 L 626 499 L 627 498 L 629 498 L 630 497 L 631 497 L 632 496 L 634 496" fill="none" stroke="black" stroke-width="1"/>
<path d="M 639 494 L 638 495 L 636 495 L 638 495 L 639 494 L 640 495 L 654 495 L 655 494 L 656 495 L 658 495 L 656 495 L 655 494" fill="none" stroke="black" stroke-width="1"/>
<path d="M 855 493 L 855 496 L 856 497 L 855 498 L 856 499 L 856 502 L 857 503 L 856 504 L 856 505 L 857 506 L 857 508 L 858 509 L 857 510 L 857 514 L 858 515 L 858 518 L 859 519 L 858 520 L 858 547 L 859 548 L 858 549 L 858 551 L 857 552 L 857 556 L 858 557 L 857 558 L 857 561 L 856 562 L 856 563 L 857 564 L 856 565 L 856 568 L 856 565 L 857 564 L 857 563 L 856 562 L 857 561 L 857 558 L 858 557 L 858 553 L 857 552 L 858 551 L 858 549 L 859 548 L 859 519 L 858 518 L 858 515 L 857 514 L 858 513 L 858 509 L 857 508 L 857 506 L 856 505 L 857 504 L 857 503 L 856 502 L 856 499 L 855 498 L 856 497 L 855 496" fill="none" stroke="black" stroke-width="1"/>
<path d="M 747 486 L 748 487 L 747 488 L 748 489 L 748 490 L 750 493 L 750 495 L 751 496 L 751 497 L 752 498 L 752 500 L 753 501 L 753 504 L 754 505 L 754 507 L 755 508 L 754 509 L 755 510 L 755 512 L 756 513 L 755 514 L 755 516 L 756 517 L 756 519 L 757 520 L 756 521 L 756 540 L 757 541 L 756 542 L 756 545 L 755 546 L 755 547 L 756 548 L 755 549 L 755 552 L 755 549 L 756 548 L 756 547 L 755 546 L 756 545 L 756 542 L 757 541 L 757 520 L 756 519 L 756 517 L 755 516 L 756 515 L 756 513 L 755 512 L 755 510 L 754 509 L 755 508 L 754 507 L 754 505 L 753 504 L 753 501 L 752 500 L 752 497 L 751 496 L 751 494 L 750 493 L 750 491 L 749 490 L 749 489 L 748 488 L 748 487" fill="none" stroke="black" stroke-width="1"/>
<path d="M 250 483 L 249 484 L 247 484 L 246 485 L 245 485 L 244 486 L 243 486 L 242 487 L 241 487 L 240 488 L 239 487 L 237 489 L 236 488 L 234 488 L 232 490 L 231 489 L 221 489 L 220 490 L 218 488 L 216 488 L 215 489 L 214 488 L 213 488 L 214 488 L 215 489 L 217 489 L 218 488 L 220 490 L 232 490 L 234 488 L 235 489 L 237 489 L 239 487 L 240 488 L 241 487 L 242 487 L 243 486 L 245 486 L 246 485 L 248 485" fill="none" stroke="black" stroke-width="1"/>
<path d="M 265 469 L 264 470 L 264 471 L 255 480 L 254 480 L 252 482 L 253 481 L 254 481 L 258 477 L 259 477 L 261 475 L 261 474 L 265 470" fill="none" stroke="black" stroke-width="1"/>
<path d="M 271 460 L 268 463 L 267 462 L 268 463 L 267 464 L 267 466 L 266 467 L 267 466 L 267 465 L 268 464 L 268 463" fill="none" stroke="black" stroke-width="1"/>
<path d="M 181 456 L 183 458 L 183 460 L 184 461 L 184 463 L 185 464 L 185 466 L 187 468 L 187 469 L 188 470 L 188 471 L 193 476 L 192 477 L 193 476 L 198 481 L 199 481 L 202 484 L 203 484 L 204 485 L 205 485 L 206 486 L 208 486 L 209 487 L 211 487 L 210 487 L 209 486 L 207 486 L 205 484 L 204 484 L 203 483 L 201 483 L 198 480 L 197 480 L 190 473 L 190 472 L 187 469 L 187 468 L 186 467 L 186 465 L 185 464 L 185 463 L 184 462 L 184 461 L 183 460 L 184 459 L 184 458 L 185 457 L 184 458 L 183 458" fill="none" stroke="black" stroke-width="1"/>
<path d="M 841 449 L 842 450 L 841 451 L 842 452 L 842 453 L 843 454 L 843 456 L 844 457 L 844 458 L 845 459 L 845 461 L 846 462 L 846 464 L 847 465 L 847 466 L 848 467 L 848 469 L 849 470 L 849 472 L 850 473 L 850 475 L 851 476 L 851 479 L 852 480 L 852 483 L 853 484 L 853 487 L 854 488 L 854 491 L 854 488 L 853 487 L 853 484 L 852 483 L 852 480 L 851 479 L 851 476 L 850 475 L 850 472 L 849 471 L 849 469 L 848 468 L 848 466 L 847 465 L 847 463 L 846 462 L 846 460 L 845 459 L 845 457 L 844 456 L 844 454 L 843 453 L 843 452 L 842 451 L 842 450" fill="none" stroke="black" stroke-width="1"/>
<path d="M 397 446 L 396 447 L 396 448 L 395 449 L 395 450 L 394 451 L 395 452 L 393 454 L 393 455 L 392 456 L 392 457 L 391 458 L 391 460 L 390 461 L 390 462 L 389 463 L 389 465 L 388 466 L 388 468 L 387 469 L 387 471 L 386 472 L 386 474 L 385 475 L 385 477 L 384 478 L 384 481 L 383 482 L 383 485 L 382 486 L 382 488 L 381 489 L 381 492 L 380 493 L 380 497 L 379 498 L 379 501 L 378 502 L 378 505 L 378 502 L 379 501 L 379 498 L 380 497 L 380 494 L 381 493 L 381 490 L 382 489 L 382 486 L 383 485 L 383 483 L 384 482 L 384 480 L 385 479 L 385 477 L 386 476 L 386 474 L 387 473 L 387 471 L 388 470 L 388 468 L 389 467 L 389 466 L 390 465 L 390 463 L 391 462 L 391 461 L 392 460 L 392 458 L 393 457 L 393 456 L 394 455 L 393 454 L 395 452 L 395 451 L 396 450 L 396 449 L 397 448 L 396 447" fill="none" stroke="black" stroke-width="1"/>
<path d="M 551 445 L 547 449 L 546 449 L 536 459 L 536 460 L 532 464 L 532 465 L 528 469 L 528 470 L 524 474 L 524 475 L 523 476 L 523 477 L 521 479 L 521 480 L 520 481 L 520 482 L 519 483 L 519 484 L 517 486 L 517 487 L 516 488 L 516 489 L 516 488 L 518 486 L 518 485 L 519 484 L 519 483 L 521 481 L 521 480 L 523 478 L 523 477 L 525 475 L 525 474 L 526 473 L 526 472 L 528 470 L 528 469 L 532 465 L 532 464" fill="none" stroke="black" stroke-width="1"/>
<path d="M 837 440 L 838 441 L 837 442 L 838 443 L 838 444 L 839 445 L 839 446 L 840 447 L 839 446 L 840 445 L 839 444 L 839 443 L 838 442 L 838 441" fill="none" stroke="black" stroke-width="1"/>
<path d="M 140 438 L 139 440 L 140 441 L 138 445 L 139 446 L 137 449 L 138 451 L 136 454 L 137 457 L 135 460 L 135 464 L 136 465 L 134 467 L 133 489 L 132 490 L 133 528 L 135 530 L 134 531 L 134 538 L 136 541 L 135 542 L 135 547 L 137 550 L 136 551 L 136 554 L 138 558 L 137 561 L 139 564 L 138 567 L 140 570 L 139 572 L 141 576 L 140 577 L 142 581 L 141 582 L 143 586 L 142 587 L 144 590 L 143 591 L 144 594 L 143 591 L 144 590 L 142 587 L 143 586 L 141 582 L 142 581 L 140 577 L 141 576 L 139 572 L 140 570 L 138 567 L 139 564 L 137 561 L 138 560 L 136 554 L 137 553 L 137 550 L 135 547 L 136 546 L 136 541 L 134 538 L 135 537 L 135 530 L 133 528 L 134 527 L 133 489 L 134 488 L 134 475 L 135 474 L 135 468 L 134 467 L 136 465 L 136 461 L 135 460 L 137 457 L 136 454 L 138 451 L 137 449 L 139 446 L 138 445 L 140 439" fill="none" stroke="black" stroke-width="1"/>
<path d="M 141 434 L 141 436" fill="none" stroke="black" stroke-width="1"/>
<path d="M 699 433 L 700 434 L 701 434 L 703 436 L 704 436 L 708 440 L 709 440 L 710 441 L 711 441 L 715 445 L 716 445 L 730 459 L 730 460 L 734 464 L 734 465 L 735 466 L 735 467 L 738 470 L 738 471 L 741 474 L 741 475 L 742 476 L 742 477 L 743 478 L 742 477 L 742 476 L 741 475 L 741 474 L 740 473 L 740 472 L 738 470 L 738 469 L 736 467 L 736 466 L 730 460 L 730 459 L 726 455 L 726 454 L 722 450 L 721 450 L 716 445 L 715 445 L 709 439 L 708 439 L 706 437 L 705 437 L 704 436 L 703 436 L 701 434 L 700 434" fill="none" stroke="black" stroke-width="1"/>
<path d="M 405 431 L 404 432 L 404 433 L 403 434 L 404 433 L 404 432" fill="none" stroke="black" stroke-width="1"/>
<path d="M 671 421 L 673 421 L 674 422 L 676 422 L 677 423 L 678 423 L 679 424 L 681 424 L 682 425 L 683 425 L 684 426 L 685 426 L 686 427 L 687 427 L 688 428 L 689 428 L 690 429 L 691 429 L 692 430 L 694 430 L 695 431 L 693 429 L 692 429 L 691 428 L 690 428 L 689 427 L 688 427 L 687 426 L 685 426 L 684 425 L 683 425 L 682 424 L 680 424 L 679 423 L 677 423 L 676 422 L 674 422 L 673 421" fill="none" stroke="black" stroke-width="1"/>
<path d="M 274 420 L 273 421 L 272 421 L 272 428 L 269 431 L 272 428 L 273 428 L 273 421" fill="none" stroke="black" stroke-width="1"/>
<path d="M 603 419 L 602 420 L 599 420 L 598 421 L 596 421 L 595 422 L 592 422 L 591 423 L 589 423 L 588 424 L 586 424 L 585 425 L 584 425 L 583 426 L 581 426 L 580 427 L 579 427 L 578 428 L 577 428 L 576 429 L 575 429 L 573 431 L 572 431 L 571 432 L 570 432 L 568 434 L 567 434 L 566 435 L 565 435 L 564 436 L 563 436 L 561 438 L 560 438 L 557 441 L 556 441 L 553 444 L 556 441 L 557 441 L 559 439 L 560 439 L 561 438 L 562 438 L 565 435 L 566 435 L 567 434 L 568 434 L 570 432 L 571 432 L 572 431 L 573 431 L 575 429 L 576 430 L 577 429 L 578 429 L 579 428 L 580 428 L 581 427 L 582 427 L 583 426 L 585 426 L 586 425 L 587 425 L 588 424 L 589 424 L 590 423 L 592 423 L 593 422 L 595 422 L 596 421 L 598 421 L 599 420 L 602 420 L 603 419 L 606 419" fill="none" stroke="black" stroke-width="1"/>
<path d="M 278 416 L 277 417" fill="none" stroke="black" stroke-width="1"/>
<path d="M 626 415 L 625 416 L 622 416 L 621 417 L 620 416 L 617 416 L 616 417 L 614 417 L 613 418 L 612 417 L 611 417 L 610 418 L 608 418 L 610 418 L 611 417 L 612 418 L 613 418 L 614 417 L 616 417 L 617 416 L 618 417 L 621 417 L 622 416 L 625 416 L 626 415 L 627 416 L 643 416 L 644 415 L 645 416 L 647 416 L 648 417 L 651 417 L 652 416 L 653 417 L 655 417 L 656 418 L 657 418 L 658 417 L 659 418 L 661 418 L 662 419 L 663 418 L 666 420 L 667 419 L 668 420 L 669 420 L 668 420 L 667 419 L 666 420 L 663 418 L 662 419 L 661 418 L 659 418 L 658 417 L 657 417 L 656 418 L 655 417 L 653 417 L 652 416 L 649 416 L 648 417 L 647 416 L 645 416 L 644 415" fill="none" stroke="black" stroke-width="1"/>
<path d="M 194 413 L 191 416 L 190 416 L 189 415 L 190 416 L 190 421 L 186 425 L 190 421 L 192 423 L 190 421 L 190 420 L 191 419 L 191 416" fill="none" stroke="black" stroke-width="1"/>
<path d="M 155 400 L 153 402 L 153 403 L 152 404 L 152 405 L 151 406 L 151 407 L 150 408 L 150 410 L 149 411 L 149 412 L 148 413 L 148 415 L 147 416 L 147 417 L 146 418 L 146 420 L 145 421 L 145 423 L 144 424 L 144 426 L 143 427 L 143 429 L 142 430 L 142 432 L 142 430 L 143 429 L 143 427 L 144 426 L 144 424 L 145 423 L 145 422 L 146 421 L 146 419 L 147 418 L 147 417 L 148 416 L 148 414 L 149 413 L 149 412 L 150 411 L 150 410 L 151 409 L 151 408 L 152 407 L 152 406 L 153 405 L 153 404 L 154 403 L 154 401" fill="none" stroke="black" stroke-width="1"/>
<path d="M 320 396 L 328 414 L 328 417 L 330 421 L 329 422 L 331 425 L 330 427 L 332 430 L 331 434 L 333 436 L 332 437 L 332 444 L 333 445 L 332 532 L 333 533 L 333 545 L 335 548 L 334 549 L 334 553 L 336 557 L 335 559 L 337 563 L 336 564 L 337 567 L 336 564 L 337 563 L 335 559 L 336 557 L 334 553 L 335 552 L 335 548 L 333 545 L 334 544 L 334 533 L 333 532 L 334 445 L 333 444 L 333 436 L 331 434 L 332 430 L 330 427 L 331 426 L 329 422 L 330 421 L 322 398" fill="none" stroke="black" stroke-width="1"/>
<path d="M 310 351 L 310 353 L 309 354 L 309 355 L 310 356 L 309 357 L 309 358 L 308 359 L 308 366 L 307 367 L 307 374 L 308 375 L 308 377 L 309 378 L 309 379 L 310 380 L 310 381 L 312 383 L 312 384 L 315 387 L 315 388 L 317 390 L 317 391 L 318 392 L 317 391 L 317 390 L 316 389 L 316 388 L 314 386 L 314 385 L 312 383 L 312 382 L 310 380 L 310 379 L 308 377 L 309 376 L 307 374 L 308 373 L 308 367 L 309 366 L 309 360 L 308 359 L 309 358 L 309 357 L 310 356 L 310 355 L 309 354 L 310 353" fill="none" stroke="black" stroke-width="1"/>
<path d="M 736 335 L 745 340 L 772 359 L 803 389 L 803 390 L 809 396 L 809 397 L 815 404 L 816 407 L 822 414 L 835 436 L 825 418 L 821 413 L 820 410 L 809 397 L 809 396 L 804 391 L 804 390 L 798 384 L 798 383 L 784 369 L 783 369 L 777 363 L 766 355 L 761 350 L 752 344 L 749 343 L 747 341 L 744 340 L 742 338 L 737 336" fill="none" stroke="black" stroke-width="1"/>
<path d="M 511 330 L 495 338 L 475 351 L 460 364 L 459 364 L 453 370 L 452 370 L 438 384 L 438 385 L 423 402 L 407 427 L 415 414 L 418 411 L 428 396 L 459 364 L 460 364 L 473 353 L 491 341 L 512 330" fill="none" stroke="black" stroke-width="1"/>
<path d="M 550 315 L 549 316 L 547 316 L 546 317 L 543 317 L 542 318 L 540 318 L 539 319 L 537 319 L 536 320 L 534 320 L 533 321 L 531 321 L 530 322 L 529 322 L 528 323 L 526 323 L 525 324 L 523 324 L 522 325 L 521 325 L 520 326 L 519 326 L 518 327 L 519 326 L 520 327 L 521 326 L 522 326 L 523 325 L 525 325 L 526 324 L 527 324 L 528 323 L 529 323 L 530 322 L 532 322 L 533 321 L 534 321 L 535 320 L 537 320 L 538 319 L 540 319 L 541 318 L 543 318 L 544 317 L 546 317 L 547 316 L 549 316 L 550 315 L 552 315" fill="none" stroke="black" stroke-width="1"/>
<path d="M 557 313 L 556 314 L 554 314 L 556 314 L 557 313 L 560 313" fill="none" stroke="black" stroke-width="1"/>
<path d="M 562 312 L 564 312" fill="none" stroke="black" stroke-width="1"/>
<path d="M 672 311 L 675 311 L 676 312 L 679 312 L 680 313 L 683 313 L 684 314 L 686 314 L 687 315 L 689 315 L 690 316 L 693 316 L 694 317 L 695 317 L 696 318 L 698 318 L 699 319 L 701 319 L 702 320 L 704 320 L 705 321 L 706 321 L 707 322 L 708 322 L 709 323 L 711 323 L 712 324 L 713 324 L 714 325 L 715 325 L 716 326 L 717 325 L 719 327 L 720 327 L 721 328 L 723 328 L 724 329 L 722 327 L 721 327 L 720 326 L 719 327 L 717 325 L 716 325 L 715 324 L 714 324 L 713 323 L 711 323 L 710 322 L 709 322 L 708 321 L 706 321 L 705 320 L 703 320 L 702 319 L 701 319 L 700 318 L 697 318 L 696 317 L 694 317 L 693 316 L 691 316 L 690 315 L 687 315 L 686 314 L 684 314 L 683 313 L 680 313 L 679 312 L 676 312 L 675 311" fill="none" stroke="black" stroke-width="1"/>
<path d="M 601 305 L 599 307 L 598 306 L 592 306 L 589 308 L 588 307 L 585 307 L 581 309 L 579 308 L 578 309 L 576 309 L 575 310 L 574 309 L 570 311 L 569 310 L 568 311 L 566 311 L 568 311 L 569 310 L 570 311 L 571 310 L 573 310 L 574 309 L 575 310 L 579 308 L 581 309 L 585 307 L 586 308 L 589 308 L 592 306 L 593 307 L 599 307 L 601 305 L 602 306 L 636 306 L 637 305 L 641 307 L 647 307 L 648 306 L 652 308 L 654 308 L 655 307 L 659 309 L 661 308 L 665 310 L 666 309 L 667 310 L 670 310 L 667 310 L 666 309 L 665 310 L 661 308 L 659 309 L 655 307 L 653 307 L 652 308 L 648 306 L 642 306 L 641 307 L 637 305" fill="none" stroke="black" stroke-width="1"/>
<path d="M 347 246 L 348 247" fill="none" stroke="black" stroke-width="1"/>
<path d="M 154 245 L 161 251 L 163 255 L 162 256 L 164 259 L 163 260 L 165 262 L 164 263 L 166 266 L 165 267 L 167 269 L 166 271 L 168 273 L 167 275 L 169 277 L 168 279 L 170 282 L 169 283 L 172 290 L 171 292 L 174 299 L 173 300 L 176 309 L 175 311 L 177 315 L 176 317 L 178 321 L 177 325 L 179 328 L 178 329 L 178 334 L 180 336 L 179 337 L 179 348 L 180 349 L 180 364 L 181 365 L 179 369 L 164 385 L 156 398 L 161 390 L 165 386 L 166 383 L 179 369 L 181 365 L 181 356 L 180 355 L 180 336 L 178 334 L 179 333 L 179 328 L 177 325 L 178 321 L 176 317 L 177 315 L 175 311 L 176 309 L 174 305 L 175 304 L 173 300 L 174 299 L 171 292 L 172 290 L 170 287 L 171 286 L 168 279 L 169 277 L 167 275 L 168 273 L 166 271 L 167 269 L 165 267 L 166 266 L 164 263 L 165 262 L 163 260 L 164 259 L 162 256 L 163 255 L 159 248 L 161 246 L 159 248 L 155 246" fill="none" stroke="black" stroke-width="1"/>
<path d="M 143 232 L 143 235 L 145 237 L 145 238 L 151 244 L 152 244 L 151 243 L 150 243 L 146 239 L 146 238 L 144 236 L 144 234 L 143 233" fill="none" stroke="black" stroke-width="1"/>
<path d="M 367 223 L 368 224 L 367 225 L 368 226 L 368 230 L 367 231 L 366 236 L 360 243 L 356 246 L 354 246 L 352 248 L 349 249 L 342 262 L 342 264 L 338 271 L 338 273 L 335 278 L 335 280 L 327 298 L 326 303 L 324 306 L 320 320 L 318 323 L 318 325 L 315 332 L 315 335 L 313 339 L 311 349 L 311 346 L 314 339 L 314 336 L 315 335 L 319 321 L 321 318 L 323 310 L 325 307 L 326 302 L 328 299 L 328 297 L 330 294 L 330 292 L 332 289 L 334 282 L 337 277 L 337 275 L 347 255 L 347 253 L 353 247 L 356 246 L 362 241 L 363 242 L 362 241 L 365 238 L 368 232 L 368 224" fill="none" stroke="black" stroke-width="1"/>
<path d="M 343 209 L 341 211 L 340 211 L 337 214 L 336 213 L 337 214 L 334 217 L 334 218 L 332 220 L 332 221 L 331 222 L 331 225 L 330 226 L 330 230 L 331 231 L 331 234 L 332 235 L 332 239 L 331 240 L 332 241 L 331 242 L 332 241 L 332 235 L 331 234 L 331 231 L 330 230 L 331 229 L 331 227 L 330 226 L 331 225 L 331 223 L 332 222 L 332 220 L 334 218 L 334 217 L 339 212 L 340 212 L 342 210 L 344 210 L 345 209 L 351 209 L 352 210 L 353 209 L 354 210 L 355 210 L 356 211 L 357 211 L 359 213 L 360 213 L 363 216 L 363 217 L 366 220 L 366 221 L 366 220 L 364 218 L 364 217 L 359 212 L 358 212 L 356 210 L 354 210 L 353 209" fill="none" stroke="black" stroke-width="1"/>
<path d="M 158 208 L 152 210 L 144 218 L 142 223 L 142 230 L 143 220 L 154 209 L 164 209 L 168 211 L 177 221 L 178 233 L 175 239 L 176 246 L 192 293 L 195 297 L 195 302 L 198 306 L 197 308 L 209 344 L 214 350 L 212 352 L 214 350 L 218 352 L 224 350 L 227 351 L 229 349 L 251 351 L 257 350 L 270 355 L 274 353 L 275 354 L 274 353 L 278 348 L 271 355 L 250 349 L 229 349 L 227 351 L 224 350 L 217 352 L 212 348 L 176 243 L 178 222 L 170 212 L 162 208" fill="none" stroke="black" stroke-width="1"/>
</svg>